<?xml version="1.0" encoding="utf-8"?>
<!-- Generator: Adobe Illustrator 16.0.0, SVG Export Plug-In . SVG Version: 6.00 Build 0)  -->
<!DOCTYPE svg PUBLIC "-//W3C//DTD SVG 1.1//EN" "http://www.w3.org/Graphics/SVG/1.1/DTD/svg11.dtd">
<svg version="1.1" id="Layer_1" xmlns="http://www.w3.org/2000/svg" xmlns:xlink="http://www.w3.org/1999/xlink" x="0px" y="0px"
	 width="141.591px" height="31.196px" viewBox="0 0 141.591 31.196" enable-background="new 0 0 141.591 31.196"
	 xml:space="preserve">
<g>
	<g>
		<path fill="#FFFFFF" d="M14.878,14.98c-0.684-0.093-1.214-0.673-1.21-1.381c0-0.389,0.156-0.739,0.41-0.992
			c0.254-0.255,0.604-0.412,0.991-0.412c0.773,0,1.403,0.629,1.403,1.404c-0.001,0.385-0.155,0.731-0.409,0.983
			c-0.209,0.213-0.488,0.354-0.8,0.398l-0.001,16.215c0.244-0.027,0.592-0.1,0.804-0.309c0.05-0.053,0.092-0.113,0.123-0.182
			c0.289-0.627-0.466-1.045-0.466-1.045s1.478-7.236,5.706-11.465c0.176-0.176,0.356-0.347,0.544-0.512c0,0-0.747-1.629-2.206-7.296
			c-1.062-4.13-0.606-7.966-0.606-7.966s-1.691-0.68-4.195-0.595c-1.869,0.06-2.836,0.192-3.987,0.595l0,0
			c0,0,0.454,3.836-0.609,7.967c-1.457,5.666-2.203,7.295-2.203,7.295c4.646,4.125,6.251,11.977,6.251,11.977
			s-0.137,0.076-0.27,0.209c-0.183,0.184-0.365,0.477-0.199,0.838c0.159,0.352,0.624,0.453,0.93,0.486"/>
		<path fill="#FFFFFF" d="M19.502,1.426c-0.135,0.132-0.337,0.182-0.521,0.107c-0.015-0.007-1.639-0.64-4-0.562
			c-1.876,0.061-2.774,0.195-3.844,0.568c-0.251,0.09-0.525-0.043-0.615-0.295c-0.086-0.252,0.048-0.527,0.298-0.613
			c1.174-0.412,2.14-0.559,4.13-0.625c2.574-0.084,4.316,0.602,4.39,0.631c0.246,0.098,0.366,0.38,0.269,0.625
			C19.582,1.327,19.545,1.381,19.502,1.426L19.502,1.426z"/>
		<path fill="#FFFFFF" d="M29.105,18.144c-0.354-0.123-1.416-0.312-1.602,0.367c-0.186,0.68,0.107,0.893,0.107,0.893
			s-0.236-0.238,0.125-0.652c0.359-0.409,0.946-0.167,1.564,0.307c0.614,0.473,0.92,1.678-0.033,2.348
			c-0.957,0.672-3.42,0.168-4.736-1.357c-1.314-1.526-4.149-3.602-5.968-3.755c-1.551-0.131-2.794,0.77-3.207,1.044v-0.013
			c0,0-1.3-1.305-3.122-1.191c-1.824,0.111-4.593,2.123-5.942,3.616c-1.352,1.496-3.81,1.941-4.751,1.25
			c-0.938-0.691-0.598-1.889,0.031-2.348c0.628-0.457,1.222-0.689,1.572-0.271c0.352,0.419,0.112,0.653,0.112,0.653
			s0.299-0.203,0.128-0.886c-0.17-0.685-1.238-0.52-1.594-0.404c-0.357,0.115-1.965,0.776-1.775,2.585
			c0.186,1.811,1.061,2.975,4.015,3.629c2.955,0.656,7.966,0.684,9.876-0.627c0.901-0.619,1.3-0.934,1.47-1.092
			c0.087,0.121,0.416,0.428,1.512,1.215c1.88,1.354,6.87,1.441,9.839,0.854c2.969-0.59,3.869-1.734,4.099-3.539
			C31.053,18.966,29.462,18.266,29.105,18.144z"/>
	</g>
	<g>
		<g>
			<path fill="#FFFFFF" d="M41.332,24.688c0.446,0,0.848-0.232,1.202-0.695c0.356-0.461,0.693-1.074,1.017-1.834
				c0.322-0.762,0.632-1.629,0.93-2.604c0.299-0.977,0.613-1.974,0.943-2.99c0.331-1.018,0.689-2.018,1.079-3.002
				c0.388-0.982,0.826-1.865,1.314-2.643c0.487-0.776,1.041-1.406,1.663-1.884c0.619-0.481,1.318-0.736,2.095-0.771
				c-0.445-0.496-1.033-0.904-1.761-1.227c-0.729-0.323-1.622-0.486-2.68-0.486c-1.422,0-2.63,0.316-3.62,0.945
				c-0.993,0.627-1.786,1.413-2.382,2.355c-0.597,0.943-1.009,1.965-1.24,3.063c-0.232,1.102-0.31,2.122-0.237,3.064
				c0.075,0.943,0.292,1.728,0.646,2.356c0.356,0.629,0.831,0.945,1.427,0.945c0.264,0,0.479-0.098,0.645-0.287
				c0.163-0.191,0.243-0.402,0.235-0.634c-0.009-0.23-0.124-0.441-0.346-0.633c-0.226-0.189-0.594-0.285-1.104-0.285
				c0-0.446,0.174-0.797,0.52-1.054c0.348-0.258,0.729-0.388,1.142-0.396s0.793,0.119,1.142,0.384c0.348,0.264,0.52,0.695,0.52,1.29
				c0,0.397-0.086,0.758-0.26,1.08c-0.175,0.322-0.406,0.6-0.695,0.832c-0.288,0.23-0.624,0.412-1.004,0.543
				c-0.379,0.135-0.778,0.199-1.189,0.199c-0.977,0-1.784-0.211-2.42-0.633c-0.637-0.42-1.108-0.979-1.414-1.674
				s-0.454-1.488-0.445-2.382c0.007-0.893,0.164-1.799,0.471-2.717c0.306-0.918,0.76-1.823,1.364-2.716
				c0.604-0.894,1.343-1.688,2.22-2.381c0.878-0.696,1.889-1.254,3.039-1.676c1.149-0.422,2.417-0.632,3.807-0.632
				c1.836,0,3.306,0.269,4.403,0.806c1.1,0.537,1.894,1.211,2.382,2.021c0.487,0.811,0.707,1.691,0.657,2.643
				s-0.302,1.831-0.757,2.643c-0.454,0.811-1.074,1.485-1.859,2.021c-0.785,0.538-1.666,0.807-2.643,0.807h-0.025
				c0.217,0.084,0.422,0.169,0.621,0.261c0.197,0.09,0.404,0.194,0.619,0.31c0.381,0.446,0.654,0.938,0.819,1.477
				c0.166,0.537,0.281,1.08,0.347,1.623c0.065,0.547,0.111,1.07,0.136,1.576c0.027,0.504,0.084,0.949,0.175,1.338
				c0.092,0.391,0.244,0.688,0.459,0.895c0.214,0.207,0.547,0.285,0.992,0.236c-0.05,0.18-0.157,0.371-0.322,0.57
				c-0.166,0.197-0.367,0.363-0.608,0.494c-0.239,0.133-0.501,0.225-0.78,0.275c-0.282,0.047-0.57,0.025-0.869-0.076
				c-0.529-0.182-0.897-0.496-1.104-0.941c-0.208-0.447-0.338-0.973-0.396-1.576s-0.078-1.24-0.062-1.91
				c0.018-0.67-0.008-1.314-0.073-1.934c-0.066-0.621-0.216-1.184-0.448-1.687c-0.232-0.505-0.629-0.882-1.19-1.129
				c-0.38,1.141-0.784,2.273-1.216,3.397c-0.429,1.125-0.929,2.133-1.499,3.025c-0.571,0.895-1.225,1.617-1.961,2.172
				s-1.601,0.83-2.591,0.83c-0.431,0-0.845-0.059-1.241-0.172c-0.397-0.117-0.731-0.305-1.005-0.561
				c-0.271-0.256-0.458-0.586-0.559-0.99c-0.099-0.406-0.073-0.906,0.075-1.502c0.1-0.396,0.294-0.707,0.583-0.93
				c0.29-0.223,0.608-0.371,0.955-0.445c0.347-0.076,0.691-0.08,1.029-0.014c0.338,0.064,0.621,0.193,0.843,0.385
				c0.224,0.189,0.349,0.439,0.373,0.744c0.025,0.305-0.104,0.658-0.386,1.055c-0.215-0.184-0.417-0.273-0.607-0.273
				c-0.189,0-0.355,0.053-0.495,0.16c-0.142,0.109-0.248,0.248-0.322,0.422c-0.074,0.176-0.093,0.344-0.051,0.51
				c0.041,0.164,0.138,0.311,0.285,0.434C40.786,24.626,41.018,24.688,41.332,24.688z M51.923,8.714
				c-0.33,0.232-0.637,0.557-0.918,0.979c-0.28,0.422-0.545,0.923-0.794,1.501c-0.247,0.578-0.487,1.212-0.719,1.897
				s-0.471,1.402-0.719,2.146c0.479,0.231,0.95,0.348,1.413,0.348c0.562,0,1.055-0.233,1.476-0.694
				c0.422-0.464,0.727-1.043,0.919-1.737c0.189-0.695,0.239-1.438,0.147-2.233C52.638,10.127,52.369,9.392,51.923,8.714z"/>
			<path fill="#FFFFFF" d="M60.084,14.098c0.545,0,0.951,0.157,1.216,0.472c0.265,0.312,0.399,0.698,0.407,1.152
				c0.009,0.455-0.095,0.946-0.309,1.478c-0.215,0.528-0.524,1.008-0.93,1.438c-0.406,0.429-0.893,0.772-1.465,1.03
				c-0.57,0.256-1.201,0.34-1.896,0.258c-0.049,0.631,0,1.158,0.148,1.59c0.149,0.428,0.455,0.645,0.919,0.645
				c0.544,0,1.062-0.17,1.549-0.51c0.488-0.338,0.922-0.721,1.303-1.152c0.431-0.496,0.825-1.057,1.189-1.686h0.396
				c-0.396,0.873-0.866,1.645-1.413,2.307c-0.231,0.297-0.487,0.582-0.768,0.854c-0.281,0.273-0.589,0.52-0.92,0.732
				c-0.329,0.215-0.684,0.389-1.064,0.521s-0.779,0.197-1.191,0.197c-0.777,0-1.377-0.23-1.799-0.693s-0.679-1.037-0.769-1.725
				c-0.091-0.686-0.037-1.434,0.16-2.244c0.2-0.81,0.534-1.559,1.005-2.246c0.472-0.686,1.062-1.259,1.773-1.724
				C58.339,14.329,59.157,14.098,60.084,14.098z M59.562,14.791c-0.215,0-0.443,0.134-0.683,0.397
				c-0.238,0.265-0.466,0.604-0.68,1.018c-0.218,0.412-0.411,0.876-0.585,1.387c-0.175,0.515-0.31,1.019-0.409,1.516
				c0.28,0.1,0.558,0.061,0.832-0.111c0.273-0.174,0.524-0.423,0.757-0.745c0.23-0.322,0.433-0.683,0.606-1.078
				c0.175-0.396,0.297-0.773,0.372-1.13c0.074-0.354,0.1-0.651,0.074-0.894C59.823,14.911,59.728,14.791,59.562,14.791z"/>
			<path fill="#FFFFFF" d="M67.698,20.247c-0.199,0.631-0.273,1.031-0.223,1.205c0.049,0.174,0.148,0.277,0.298,0.311
				c0.182,0.049,0.404-0.014,0.67-0.186c0.263-0.174,0.496-0.477,0.693-0.906h0.422c-0.198,0.512-0.433,0.945-0.707,1.301
				c-0.271,0.357-0.554,0.645-0.843,0.869c-0.29,0.223-0.571,0.385-0.844,0.482c-0.274,0.1-0.517,0.15-0.731,0.15
				c-0.331,0-0.628-0.092-0.893-0.273s-0.414-0.539-0.446-1.066c-0.331,0.381-0.729,0.699-1.192,0.955
				c-0.462,0.256-0.926,0.385-1.388,0.385c-0.331,0-0.599-0.104-0.808-0.311c-0.206-0.207-0.334-0.521-0.382-0.943
				c-0.051-0.422-0.005-0.953,0.135-1.6c0.142-0.645,0.401-1.395,0.781-2.257c0.264-0.61,0.582-1.164,0.955-1.661
				c0.372-0.496,0.781-0.926,1.228-1.29s0.909-0.653,1.39-0.868c0.479-0.215,0.96-0.363,1.439-0.446l1.711-5.706h2.257
				c-0.595,1.984-1.133,3.795-1.612,5.432c-0.198,0.696-0.4,1.394-0.608,2.098c-0.206,0.702-0.396,1.348-0.57,1.935
				c-0.172,0.589-0.326,1.093-0.458,1.515C67.838,19.79,67.749,20.083,67.698,20.247z M65.193,21.042
				c0.033-0.131,0.062-0.262,0.088-0.383c0.023-0.125,0.06-0.262,0.11-0.412l1.462-4.86c-0.098-0.05-0.213-0.074-0.347-0.074
				c-0.265,0-0.536,0.153-0.818,0.459c-0.282,0.305-0.544,0.694-0.793,1.165c-0.248,0.471-0.476,0.977-0.682,1.514
				c-0.208,0.539-0.357,1.041-0.446,1.514c-0.092,0.471-0.117,0.859-0.076,1.164c0.043,0.307,0.171,0.461,0.385,0.461
				c0.183,0,0.385-0.072,0.608-0.211C64.907,21.237,65.077,21.126,65.193,21.042z"/>
			<path fill="#FFFFFF" d="M92.751,19.454c-0.281,0.928-0.414,1.602-0.396,2.021c0.015,0.422,0.131,0.65,0.347,0.684
				c0.313,0.066,0.628-0.111,0.943-0.533c0.313-0.424,0.61-0.939,0.891-1.551h0.474c-0.282,0.711-0.57,1.295-0.867,1.748
				c-0.301,0.455-0.605,0.814-0.92,1.078c-0.313,0.266-0.628,0.447-0.942,0.547c-0.313,0.1-0.621,0.15-0.918,0.15
				s-0.588-0.064-0.868-0.188c-0.282-0.123-0.504-0.35-0.671-0.682c-0.165-0.332-0.247-0.787-0.247-1.365s0.14-1.332,0.422-2.256
				l3.325-11.436c-0.663,0.793-1.265,1.756-1.812,2.888c-0.545,1.135-1.067,2.325-1.562,3.572c-0.497,1.251-0.988,2.49-1.475,3.723
				c-0.488,1.233-1.001,2.335-1.538,3.31c-0.537,0.979-1.122,1.771-1.75,2.383s-1.33,0.918-2.108,0.918L86.004,9.11
				c-0.578,0.81-1.079,1.785-1.501,2.928c-0.422,1.142-0.818,2.324-1.19,3.548c-0.371,1.224-0.735,2.438-1.091,3.647
				c-0.356,1.205-0.745,2.289-1.166,3.248c-0.423,0.959-0.897,1.732-1.428,2.318c-0.528,0.588-1.147,0.881-1.858,0.881
				c-0.432,0-0.845-0.059-1.241-0.172c-0.397-0.117-0.731-0.305-1.004-0.561c-0.274-0.256-0.464-0.586-0.571-0.99
				c-0.108-0.406-0.069-0.906,0.111-1.502c0.099-0.396,0.293-0.707,0.582-0.93c0.29-0.223,0.608-0.371,0.956-0.445
				c0.348-0.076,0.69-0.08,1.03-0.014c0.338,0.064,0.615,0.193,0.83,0.385c0.215,0.189,0.34,0.439,0.372,0.744
				c0.033,0.305-0.092,0.658-0.372,1.055c-0.215-0.184-0.419-0.273-0.607-0.273c-0.19,0-0.36,0.053-0.509,0.16
				c-0.148,0.109-0.26,0.248-0.336,0.422c-0.074,0.176-0.094,0.344-0.061,0.51c0.031,0.164,0.129,0.311,0.286,0.434
				c0.156,0.123,0.391,0.186,0.706,0.186c0.43,0,0.815-0.236,1.152-0.707c0.34-0.473,0.661-1.1,0.968-1.885
				c0.305-0.785,0.599-1.684,0.881-2.691c0.281-1.008,0.574-2.05,0.88-3.124c0.308-1.076,0.637-2.136,0.993-3.177
				c0.355-1.04,0.762-1.997,1.216-2.866c0.453-0.867,0.958-1.596,1.512-2.183c0.556-0.585,1.195-0.963,1.924-1.129
				c-0.414-0.182-0.894-0.311-1.44-0.385c-0.545-0.074-1.107-0.111-1.686-0.111c-1.075,0-2.033,0.186-2.876,0.559
				c-0.845,0.373-1.581,0.855-2.209,1.451c-0.629,0.597-1.152,1.278-1.575,2.047c-0.422,0.768-0.748,1.56-0.979,2.37
				c-0.232,0.809-0.374,1.599-0.422,2.367c-0.051,0.771-0.01,1.452,0.125,2.047c0.132,0.597,0.342,1.08,0.631,1.452
				c0.289,0.373,0.648,0.561,1.08,0.561c0.265,0,0.484-0.098,0.656-0.287c0.175-0.191,0.261-0.402,0.261-0.634
				c0-0.23-0.11-0.441-0.335-0.633c-0.223-0.189-0.592-0.285-1.103-0.285c0-0.446,0.174-0.797,0.521-1.054
				c0.347-0.258,0.73-0.388,1.153-0.396c0.421-0.009,0.806,0.119,1.152,0.384c0.348,0.264,0.521,0.695,0.521,1.29
				c0,0.397-0.092,0.758-0.272,1.08c-0.183,0.322-0.421,0.6-0.721,0.832c-0.297,0.23-0.636,0.412-1.016,0.543
				c-0.381,0.135-0.771,0.199-1.165,0.199c-0.979,0-1.783-0.211-2.42-0.633c-0.637-0.42-1.111-0.979-1.427-1.674
				c-0.314-0.695-0.467-1.488-0.458-2.382c0.009-0.893,0.169-1.799,0.483-2.717s0.769-1.823,1.364-2.716
				c0.597-0.894,1.33-1.688,2.207-2.381c0.877-0.696,1.887-1.254,3.027-1.676s2.407-0.632,3.795-0.632
				c0.925,0,1.811,0.115,2.653,0.347c0.844,0.23,1.555,0.596,2.135,1.092l-2.506,11.984c0.413-1.01,0.822-2.068,1.228-3.178
				c0.404-1.107,0.83-2.187,1.278-3.236c0.445-1.051,0.921-2.035,1.426-2.953c0.503-0.918,1.062-1.695,1.674-2.334
				c0.611-0.635,1.286-1.093,2.022-1.375c0.734-0.282,1.558-0.307,2.468-0.074c-0.628,2.232-1.217,4.29-1.762,6.178
				c-0.231,0.793-0.463,1.592-0.694,2.394c-0.23,0.801-0.444,1.543-0.645,2.221c-0.199,0.679-0.376,1.272-0.534,1.785
				C92.929,18.878,92.815,19.241,92.751,19.454z"/>
			<path fill="#FFFFFF" d="M99.747,20.247c-0.101,0.316-0.167,0.568-0.2,0.758s-0.037,0.34-0.012,0.447
				c0.024,0.107,0.064,0.182,0.123,0.223c0.058,0.043,0.121,0.07,0.186,0.088c0.15,0.049,0.369-0.014,0.659-0.186
				c0.289-0.174,0.532-0.477,0.73-0.906h0.397c-0.215,0.512-0.459,0.945-0.731,1.301c-0.274,0.357-0.55,0.645-0.83,0.869
				c-0.282,0.223-0.56,0.385-0.831,0.482c-0.272,0.1-0.524,0.15-0.756,0.15c-0.168,0-0.328-0.025-0.485-0.076
				c-0.157-0.049-0.298-0.131-0.421-0.246c-0.125-0.117-0.22-0.271-0.287-0.473c-0.065-0.197-0.1-0.453-0.1-0.768
				c-0.28,0.512-0.568,0.9-0.866,1.164c-0.298,0.266-0.638,0.398-1.018,0.398c-0.214,0-0.426-0.045-0.634-0.135
				c-0.205-0.092-0.367-0.254-0.483-0.484c-0.115-0.232-0.173-0.559-0.173-0.98s0.101-0.963,0.297-1.627l1.861-6.149h2.232
				c-0.28,0.925-0.538,1.786-0.77,2.579c-0.213,0.694-0.422,1.381-0.619,2.059c-0.2,0.68-0.348,1.184-0.447,1.512
				c-0.197,0.631-0.277,1.039-0.234,1.229c0.04,0.191,0.102,0.287,0.185,0.287c0.101,0,0.244-0.143,0.436-0.424
				c0.19-0.281,0.351-0.586,0.481-0.918l0.051-0.174l1.911-6.149h2.231c-0.28,0.925-0.545,1.786-0.794,2.579
				c-0.215,0.694-0.425,1.381-0.632,2.059C99.998,19.415,99.844,19.919,99.747,20.247z"/>
			<path fill="#FFFFFF" d="M105.449,17.768c0.711,0.465,1.181,1.021,1.402,1.675c0.225,0.654,0.245,1.277,0.062,1.873
				c-0.18,0.596-0.562,1.102-1.14,1.525c-0.58,0.422-1.323,0.633-2.233,0.633c-0.397,0-0.766-0.084-1.103-0.248
				c-0.34-0.164-0.621-0.385-0.845-0.658c-0.224-0.271-0.376-0.574-0.458-0.906c-0.084-0.33-0.066-0.66,0.05-0.99
				c0.114-0.381,0.293-0.67,0.531-0.869c0.239-0.199,0.5-0.322,0.781-0.369c0.283-0.053,0.56-0.035,0.831,0.047
				c0.274,0.084,0.51,0.215,0.708,0.396s0.34,0.406,0.423,0.67c0.081,0.264,0.064,0.555-0.05,0.869
				c-0.315-0.297-0.601-0.4-0.856-0.311s-0.438,0.248-0.547,0.473c-0.106,0.221-0.122,0.457-0.05,0.705
				c0.075,0.248,0.285,0.396,0.634,0.447c0.397,0.049,0.723-0.045,0.98-0.287c0.257-0.238,0.421-0.537,0.495-0.891
				c0.074-0.357,0.047-0.729-0.088-1.117c-0.131-0.389-0.38-0.717-0.743-0.98c-0.645-0.445-1.096-0.979-1.351-1.599
				c-0.258-0.619-0.314-1.213-0.175-1.774s0.475-1.041,1.005-1.439c0.529-0.396,1.257-0.594,2.182-0.594
				c0.812,0,1.432,0.207,1.863,0.619c0.427,0.414,0.561,0.95,0.395,1.614c-0.147,0.496-0.412,0.838-0.793,1.028
				c-0.381,0.189-0.754,0.252-1.116,0.187c-0.364-0.066-0.661-0.245-0.893-0.534c-0.232-0.288-0.257-0.666-0.075-1.127
				c0.347,0.246,0.642,0.329,0.881,0.246s0.401-0.219,0.484-0.408c0.082-0.191,0.069-0.386-0.037-0.584
				c-0.108-0.197-0.345-0.298-0.709-0.298c-0.33,0-0.61,0.103-0.841,0.31c-0.233,0.207-0.387,0.464-0.459,0.771
				c-0.075,0.306-0.051,0.632,0.072,0.979C104.794,17.199,105.056,17.504,105.449,17.768z"/>
			<path fill="#FFFFFF" d="M109.668,14.197l1.239-4.07h2.233l-0.373,1.24c-0.115,0.381-0.243,0.815-0.383,1.304
				c-0.142,0.488-0.294,0.995-0.459,1.526h1.563v1.115h-1.887l-1.216,4.019c-0.279,0.844-0.416,1.475-0.409,1.896
				s0.144,0.633,0.409,0.633c0.249,0,0.517-0.156,0.806-0.471c0.29-0.314,0.571-0.684,0.844-1.104
				c0.272-0.422,0.521-0.844,0.745-1.266c0.223-0.421,0.384-0.738,0.482-0.954h0.398c-0.15,0.397-0.373,0.905-0.67,1.526
				c-0.298,0.619-0.643,1.213-1.031,1.785c-0.387,0.57-0.805,1.062-1.252,1.477c-0.447,0.412-0.901,0.619-1.363,0.619
				c-0.745,0-1.245-0.355-1.501-1.066c-0.257-0.711-0.178-1.736,0.235-3.076l1.24-4.019h-0.892v-1.115H109.668z"/>
			<path fill="#FFFFFF" d="M120.086,14.319c-0.266,0.877-0.514,1.704-0.745,2.48c-0.198,0.663-0.397,1.321-0.594,1.975
				c-0.2,0.652-0.348,1.145-0.447,1.473c-0.198,0.631-0.272,1.031-0.224,1.205s0.141,0.277,0.273,0.311
				c0.18,0.049,0.417-0.014,0.706-0.186c0.289-0.174,0.533-0.477,0.731-0.906h0.348c-0.198,0.512-0.43,0.945-0.695,1.301
				c-0.265,0.357-0.541,0.645-0.829,0.869c-0.291,0.223-0.572,0.385-0.844,0.482c-0.272,0.1-0.518,0.15-0.731,0.15
				c-0.297,0-0.58-0.088-0.846-0.262c-0.263-0.174-0.411-0.525-0.444-1.053c-0.349,0.363-0.753,0.674-1.216,0.93
				s-0.917,0.385-1.365,0.385c-0.313,0-0.578-0.104-0.792-0.311c-0.217-0.207-0.347-0.521-0.398-0.943
				c-0.05-0.422-0.002-0.953,0.137-1.6c0.142-0.645,0.4-1.395,0.781-2.257c0.381-0.875,0.87-1.623,1.465-2.245
				c0.595-0.62,1.228-1.104,1.897-1.451c0.669-0.348,1.337-0.554,2.009-0.619C118.934,13.98,119.54,14.072,120.086,14.319z
				 M115.817,21.067c0.051-0.248,0.126-0.521,0.225-0.82l1.464-4.885c-0.1-0.032-0.198-0.05-0.298-0.05
				c-0.265,0-0.537,0.153-0.818,0.459c-0.283,0.305-0.547,0.694-0.794,1.165c-0.248,0.471-0.477,0.977-0.682,1.514
				c-0.208,0.539-0.356,1.041-0.446,1.514c-0.092,0.471-0.117,0.859-0.074,1.164c0.04,0.307,0.169,0.461,0.383,0.461
				c0.166,0,0.348-0.062,0.547-0.186C115.521,21.278,115.688,21.165,115.817,21.067z"/>
			<path fill="#FFFFFF" d="M125.12,15.759c-0.099,0.084-0.157,0.188-0.172,0.311c-0.018,0.123-0.01,0.239,0.024,0.349
				c0.033,0.105,0.091,0.197,0.173,0.271c0.082,0.076,0.174,0.11,0.274,0.11c0.13,0,0.225-0.098,0.284-0.297
				c0.058-0.197,0.069-0.416,0.038-0.657c-0.035-0.238-0.135-0.459-0.3-0.657s-0.404-0.297-0.719-0.297
				c-0.38,0-0.729,0.177-1.042,0.531c-0.314,0.356-0.582,0.804-0.806,1.343c-0.226,0.536-0.394,1.113-0.509,1.735
				c-0.116,0.621-0.161,1.197-0.136,1.734c0.022,0.539,0.12,0.984,0.284,1.342c0.166,0.354,0.423,0.531,0.769,0.531
				c0.546,0,1.06-0.17,1.539-0.508c0.479-0.34,0.908-0.715,1.289-1.129c0.431-0.479,0.826-1.031,1.191-1.66h0.422
				c-0.38,0.873-0.845,1.645-1.39,2.307c-0.232,0.297-0.488,0.582-0.769,0.854c-0.282,0.273-0.587,0.52-0.918,0.732
				c-0.331,0.215-0.687,0.389-1.065,0.521c-0.383,0.133-0.787,0.197-1.217,0.197c-0.777,0-1.378-0.23-1.797-0.693
				c-0.424-0.463-0.679-1.037-0.771-1.725c-0.091-0.686-0.038-1.434,0.162-2.244c0.196-0.81,0.532-1.559,1.002-2.246
				c0.474-0.686,1.065-1.259,1.776-1.724c0.709-0.462,1.529-0.693,2.454-0.693c0.479,0,0.87,0.103,1.167,0.311
				c0.297,0.206,0.503,0.466,0.62,0.78c0.116,0.314,0.147,0.648,0.098,1.004c-0.048,0.355-0.173,0.691-0.369,1.007
				c-0.2,0.314-0.462,0.574-0.782,0.78c-0.322,0.207-0.708,0.31-1.153,0.31c-0.497,0-0.837-0.147-1.02-0.445
				c-0.181-0.298-0.243-0.62-0.184-0.968c0.056-0.348,0.227-0.645,0.507-0.894C124.36,15.734,124.707,15.66,125.12,15.759z"/>
			<path fill="#FFFFFF" d="M132.463,8.392l-2.183,7.343c0.331-0.479,0.689-0.873,1.079-1.178c0.388-0.308,0.797-0.459,1.228-0.459
				c0.544,0,0.876,0.188,0.993,0.569c0.114,0.381,0.119,0.853,0.01,1.414c-0.105,0.562-0.284,1.178-0.531,1.849
				c-0.25,0.67-0.476,1.286-0.684,1.847c-0.205,0.562-0.342,1.033-0.408,1.414c-0.065,0.381,0.025,0.572,0.273,0.572
				c0.182,0,0.404-0.076,0.669-0.223c0.265-0.15,0.505-0.439,0.719-0.869h0.397c-0.198,0.512-0.436,0.945-0.708,1.301
				c-0.271,0.357-0.549,0.645-0.83,0.869c-0.281,0.223-0.558,0.385-0.831,0.482c-0.271,0.1-0.517,0.15-0.73,0.15
				c-0.432,0-0.74-0.107-0.932-0.322c-0.189-0.215-0.298-0.504-0.322-0.869c-0.025-0.363,0.012-0.773,0.111-1.227
				c0.1-0.455,0.228-0.922,0.385-1.402c0.157-0.479,0.323-0.945,0.496-1.401c0.175-0.454,0.318-0.864,0.434-1.228
				c0.115-0.364,0.187-0.653,0.212-0.869c0.024-0.215-0.029-0.32-0.162-0.32c-0.147,0-0.302,0.103-0.459,0.309
				c-0.156,0.208-0.316,0.467-0.483,0.782c-0.165,0.313-0.316,0.644-0.459,0.99c-0.141,0.348-0.27,0.671-0.385,0.97l-1.389,4.662
				h-2.23l4.488-15.156H132.463z"/>
			<path fill="#FFFFFF" d="M139.062,14.098c0.545,0,0.95,0.157,1.214,0.472c0.265,0.312,0.401,0.698,0.409,1.152
				c0.008,0.455-0.095,0.946-0.31,1.478c-0.215,0.528-0.524,1.008-0.931,1.438c-0.406,0.429-0.892,0.772-1.465,1.03
				c-0.568,0.256-1.202,0.34-1.895,0.258c-0.051,0.631,0,1.158,0.148,1.59c0.148,0.428,0.454,0.645,0.916,0.645
				c0.547,0,1.063-0.17,1.552-0.51c0.487-0.338,0.92-0.721,1.303-1.152c0.429-0.496,0.824-1.057,1.189-1.686h0.396
				c-0.396,0.873-0.867,1.645-1.414,2.307c-0.231,0.297-0.486,0.582-0.769,0.854c-0.279,0.273-0.588,0.52-0.918,0.732
				c-0.33,0.215-0.687,0.389-1.065,0.521c-0.381,0.133-0.778,0.197-1.19,0.197c-0.779,0-1.377-0.23-1.799-0.693
				s-0.679-1.037-0.771-1.725c-0.089-0.686-0.037-1.434,0.162-2.244c0.198-0.81,0.534-1.559,1.006-2.246
				c0.471-0.686,1.062-1.259,1.772-1.724C137.316,14.329,138.135,14.098,139.062,14.098z M138.54,14.791
				c-0.214,0-0.442,0.134-0.682,0.397c-0.241,0.265-0.468,0.604-0.683,1.018c-0.215,0.412-0.409,0.876-0.582,1.387
				c-0.175,0.515-0.312,1.019-0.411,1.516c0.281,0.1,0.559,0.061,0.833-0.111c0.272-0.174,0.523-0.423,0.757-0.745
				c0.231-0.322,0.434-0.683,0.606-1.078c0.175-0.396,0.298-0.773,0.373-1.13c0.074-0.354,0.1-0.651,0.074-0.894
				C138.8,14.911,138.705,14.791,138.54,14.791z"/>
		</g>
	</g>
</g>
<text transform="matrix(1 0 0 1 -833.1577 -103.1982)" opacity="0.3" font-family="'ClarendonBT-Black'" font-size="25.9177">Tribeca.NY</text>
</svg>
